<?xml version="1.0" encoding="utf-8"?>
<!-- Uploaded to: SVG Repo, www.svgrepo.com, Generator: SVG Repo Mixer Tools -->
<svg width="800px" height="800px" viewBox="0 0 1024 1024" class="icon"  version="1.1" xmlns="http://www.w3.org/2000/svg"><path d="M940.992414 519.378452c1.150885-97.505542-30.722238-194.499579-93.349568-273.143392h-0.031969l-158.246699 30.914052-63.138834 69.916268 70.971247 218.284537 123.016827 18.414162 120.778996-64.385627z" fill="#5FCEFF" /><path d="M940.992414 519.378452l-120.778996 64.385627 67.166932 138.425899c35.229871-63.522463 52.844807-133.278886 53.612064-202.811526z" fill="#FF4893" /><path d="M887.38035 722.189978l-67.166932-138.425899-123.016827-18.414162-187.945928 134.845369v93.093815l0.927102 0.767257 150.382317 122.313509 0.35166 0.927102c72.857419-27.01383 139.257095-74.136181 190.279666-140.120259 13.650776-17.646905 25.7031-36.029097 36.188942-54.986732z" fill="#5FCEFF" /><path d="M847.610877 246.23506h0.031969c-21.09956-26.534295-45.715713-50.958634-73.720583-72.601667-32.832194-25.38341-68.189941-45.268146-104.954326-59.782086l20.396241 163.297805 158.246699-30.914052zM697.196591 565.349917l-70.971247-218.284537h-229.409759l-70.971247 218.284537 183.406325 134.845369z" fill="#FF4893" /><path d="M626.225344 347.06538l63.138834-69.916268-20.396241-163.297805c-98.272798-38.938279-206.615841-39.577659-303.86563-4.667479l-21.003653 167.965284 52.716931 69.916268h229.409759z" fill="#5FCEFF" /><path d="M660.911742 917.296969l-0.35166-0.927102-150.382317-122.313509-0.927102-0.767257-151.245481 123.080766c98.336736 37.371796 206.296151 36.796354 302.90656 0.927102z" fill="#FF4893" /><path d="M509.250663 793.289101v-93.093815l-183.406325-134.845369-112.594923 18.414162-68.030096 140.248134-8.088165 3.548562c27.301552 47.7937 64.289719 91.111736 110.548906 126.885081 34.430645 26.630202 71.642596 47.218257 110.325122 61.924011l151.245481-123.080766z" fill="#5FCEFF" /><path d="M325.844338 565.349917l70.971247-218.284537-52.716931-69.916268-168.41285-32.896132c-1.790266 2.205863-3.548562 4.443695-5.306859 6.713496-60.389498 78.10034-89.673129 170.426899-89.832974 262.050139h0.031969l132.671475 70.747464 112.594923-18.414162z" fill="#5FCEFF" /><path d="M344.098654 277.149112l21.003653-167.965284c-72.090163 25.862945-138.10621 71.258968-189.416503 135.069152l168.41285 32.896132zM80.545971 513.016615c-0.127876 74.615716 19.085511 148.815835 56.585183 214.54416l8.088165-3.548562 68.030096-140.248134-132.671475-70.747464h-0.031969z" fill="#FF4893" /><path d="M510.491062 966.676332h-0.015985c-55.140183 0-109.113496-9.888021-160.420592-29.389129-41.553345-15.792701-80.603515-37.710668-116.066761-65.140096-47.589098-36.802747-86.715994-81.716038-116.287346-133.486684-39.085336-68.503237-59.670194-146.53964-59.532728-225.682171 0.17583-100.632113 32.854572-195.966957 94.510043-275.700914 1.870188-2.416859 3.733983-4.785764 5.629747-7.1227a451.17892 451.17892 0 0 1 199.240585-142.038401 453.272892 453.272892 0 0 1 153.550448-26.706927c57.243745 0 113.1352 10.64249 166.114277 31.636552 39.401829 15.55613 76.553039 36.716431 110.398651 62.883082a452.969186 452.969186 0 0 1 77.550473 76.377209c64.558259 81.067066 99.439668 183.118604 98.215254 287.334445-0.824801 74.53899-20.332303 148.336299-56.422141 213.406063a453.742837 453.742837 0 0 1-38.05913 57.822385c-51.895326 67.118978-121.127458 118.093597-200.19646 147.409197a453.186576 453.186576 0 0 1-158.208335 28.398089z m0.604214-860.51038a408.576991 408.576991 0 0 0-138.432293 24.079073c-70.421379 25.265124-132.502039 69.535837-179.538073 128.029571-1.742312 2.148319-3.398308 4.255078-5.051106 6.393806-55.54619 71.831214-84.989666 157.7288-85.149512 248.386576-0.121482 71.348481 18.426949 141.686741 53.644032 203.415741 26.630202 46.620436 61.892042 87.086835 104.800875 120.270688 31.972227 24.728045 67.160538 44.481708 104.586681 58.707926 46.211233 17.560588 94.836128 26.46716 144.522394 26.46716h0.012788a408.372389 408.372389 0 0 0 142.629827-25.603996c71.220605-26.406419 133.588986-72.336324 180.362874-132.831319a408.346814 408.346814 0 0 0 34.31236-52.128701c32.50611-58.61202 50.076289-125.075633 50.81797-192.22658 1.109325-93.956979-30.313034-185.915894-88.477488-258.955537a408.605763 408.605763 0 0 0-69.900284-68.835715c-30.514439-23.593144-63.986014-42.659474-99.487621-56.677894-47.732959-18.906484-98.07459-28.4908-149.653424-28.490799z" fill="#4F46A3" /><path d="M509.250663 722.57041a22.346352 22.346352 0 0 1-13.254359-4.347788l-183.406326-134.845369a22.375124 22.375124 0 0 1-8.024226-24.948631l70.971247-218.284537a22.378321 22.378321 0 0 1 21.281783-15.457026h229.409759a22.378321 22.378321 0 0 1 21.281783 15.457026l70.96805 218.284537a22.387912 22.387912 0 0 1-8.235222 25.102083l-187.945927 134.845368a22.35914 22.35914 0 0 1-13.046562 4.194337z m-157.124585-165.676301l157.287627 115.641572 161.443602-115.826993-60.885018-187.264987h-196.897255l-60.948956 187.450408zM358.005182 938.744991a22.391109 22.391109 0 0 1-22.394305-22.378321c0-7.327302 3.516593-13.832999 8.954525-17.915445l150.561344-122.524504a22.378321 22.378321 0 0 1 28.251032 34.718367l-151.245481 123.080765a22.387912 22.387912 0 0 1-14.127115 5.019138zM145.203334 746.393731a22.378321 22.378321 0 0 1-20.11811-32.151253l58.631201-120.871706-113.665886-60.613281a22.375124 22.375124 0 0 1-9.216672-30.274671 22.375124 22.375124 0 0 1 30.274672-9.216672l132.671474 70.744267a22.378321 22.378321 0 0 1 9.606694 29.510612l-68.030096 140.248134a22.384715 22.384715 0 0 1-20.153277 12.62457zM344.098654 299.527433c-1.429016 0-2.864425-0.137467-4.290243-0.415598l-168.41285-32.896131a22.378321 22.378321 0 1 1 8.580487-43.925448l144.893235 28.302183 18.030533-144.18672a22.378321 22.378321 0 0 1 44.408179 5.553021l-21.003652 167.965284a22.381518 22.381518 0 0 1-22.205689 19.603409zM887.364366 744.629041a22.333564 22.333564 0 0 1-20.425013-13.299117l-66.86003-137.799307a22.371927 22.371927 0 0 1 9.606694-29.513808l120.778995-64.385627a22.378321 22.378321 0 1 1 21.054803 39.49454l-101.77021 54.251444 57.761643 119.046274c0.425188 0.869558 0.789635 1.774281 1.096538 2.691792 3.909812 11.72624-2.413662 24.44352-14.136705 28.353333a22.515788 22.515788 0 0 1-7.106715 1.160476zM689.364178 299.527433a22.391109 22.391109 0 0 1-22.205688-19.606606l-20.399438-163.297806a22.391109 22.391109 0 0 1 22.205688-25.169217 22.365533 22.365533 0 0 1 22.263233 20.086142l17.371971 139.049296 134.723886-26.316906a22.378321 22.378321 0 0 1 8.580488 43.925447l-158.246699 30.914052c-1.425819 0.278131-2.861228 0.415597-4.293441 0.415598z" fill="#4F46A3" /><path d="M509.250663 815.664225a22.378321 22.378321 0 0 1-22.378321-22.378321v-93.093815a22.378321 22.378321 0 1 1 44.756642 0v93.093815a22.375124 22.375124 0 0 1-22.378321 22.378321zM820.24219 606.1424c-1.102932 0-2.215454-0.079923-3.340763-0.249359l-123.016828-18.414161a22.378321 22.378321 0 0 1 6.623983-44.264319l123.016828 18.414161a22.378321 22.378321 0 0 1-3.28322 44.513678zM626.222147 369.443701a22.378321 22.378321 0 0 1-16.601517-37.378189l63.138834-69.916269a22.378321 22.378321 0 0 1 33.219019 29.996541l-63.138834 69.916268a22.336761 22.336761 0 0 1-16.617502 7.381649zM396.834766 369.443701a22.346352 22.346352 0 0 1-17.886672-8.906571l-52.71693-69.916269a22.378321 22.378321 0 0 1 35.738178-26.946695l52.716931 69.916268a22.378321 22.378321 0 0 1-17.851507 35.853267zM213.223839 606.1424a22.378321 22.378321 0 0 1-3.586925-44.465724l112.594924-18.414162a22.378321 22.378321 0 0 1 7.225001 44.168412l-112.594924 18.414162a22.394306 22.394306 0 0 1-3.638076 0.297312z" fill="#4F46A3" /><path d="M660.547295 938.744991a22.295202 22.295202 0 0 1-14.107933-5.015941l-150.382317-122.313509a22.381518 22.381518 0 0 1 28.238244-34.72476l150.382317 122.313509a22.381518 22.381518 0 0 1-14.130311 39.740701z" fill="#4F46A3" /></svg>